<svg xmlns="http://www.w3.org/2000/svg" xmlns:xlink="http://www.w3.org/1999/xlink" viewBox="0 0 154.5 154.5" height="154.5" width="154.5" data-background-color="#ffffff" preserveAspectRatio="xMidYMid meet" id="tight-bounds"><g><svg/></g><g><svg viewBox="0 0 154.5 154.5" height="154.5" width="154.5"><g transform="matrix(1,0,0,1,41.01647089344249,43.83165)"><svg viewBox="0 0 72.46705821311502 66.8367" height="66.8367" width="72.46705821311502"><g><svg viewBox="0 0 72.46705821311502 66.8367" height="66.8367" width="72.46705821311502"><g><svg viewBox="0 0 72.46705821311502 66.8367" height="66.8367" width="72.46705821311502"><g id="textblocktransform"><svg viewBox="0 0 72.46705821311502 66.8367" height="66.8367" width="72.46705821311502" id="textblock"><g><svg viewBox="0 0 72.46705821311502 66.8367" height="66.8367" width="72.46705821311502"><g transform="matrix(1,0,0,1,0,0)"><svg width="72.46705821311502" viewBox="2.299999952316284 -34.150001525878906 38.960620164871216 34.55000305175781" height="66.8367" data-palette-color="#000000"><g transform="matrix(1,0,0,1,0,0)"><g><svg width="4.864693680297692" viewBox="2.5199999809265137 -36.86000061035156 32.72999954223633 37.36000061035156" height="5.553616659439145" data-palette-color="#000000" id="scriptelement" x="33.40116228538801" y="-31.499699660438566"><path d="M35.25-23.63L35.25-23.63 27.47-23.63Q27.25-25.14 26.6-26.32 25.94-27.5 24.91-28.34 23.88-29.17 22.54-29.62 21.2-30.06 19.64-30.06L19.64-30.06Q16.81-30.06 14.72-28.67 12.62-27.27 11.47-24.62 10.32-21.96 10.32-18.18L10.32-18.18Q10.32-14.29 11.48-11.65 12.64-9 14.74-7.65 16.83-6.3 19.58-6.3L19.58-6.3Q21.13-6.3 22.45-6.71 23.77-7.12 24.8-7.91 25.83-8.7 26.52-9.84 27.2-10.97 27.47-12.43L27.47-12.43 35.25-12.39Q34.94-9.89 33.74-7.57 32.55-5.26 30.53-3.44 28.52-1.62 25.74-0.56 22.96 0.5 19.46 0.5L19.46 0.5Q14.6 0.5 10.77-1.7 6.94-3.91 4.73-8.08 2.52-12.25 2.52-18.18L2.52-18.18Q2.52-24.13 4.76-28.3 7-32.48 10.83-34.67 14.67-36.86 19.46-36.86L19.46-36.86Q22.62-36.86 25.33-35.97 28.04-35.09 30.13-33.39 32.23-31.69 33.55-29.24 34.87-26.79 35.25-23.63Z" opacity="1" transform="matrix(1,0,0,1,0,0)" fill="#ffffff" class="undefined-123" data-fill-palette-color="primary" id="w-123"/></svg></g></g><path d="M30.406-28.723C30.406-31.72 32.836-34.15 35.834-34.15 38.831-34.15 41.261-31.72 41.261-28.723 41.261-25.726 38.831-23.296 35.834-23.296 32.836-23.296 30.406-25.726 30.406-28.723ZM35.834-23.849C38.526-23.849 40.708-26.031 40.708-28.723 40.708-31.415 38.526-33.597 35.834-33.597 33.142-33.597 30.959-31.415 30.959-28.723 30.959-26.031 33.142-23.849 35.834-23.849Z" fill="#ffffff" id="scriptcircle" data-fill-palette-color="primary"/><path d="M28.05-6.85L28.05-1.65Q24.95 0.4 19.45 0.4L19.45 0.4Q11.9 0.4 7.1-4.3 2.3-9 2.3-16.9L2.3-16.9Q2.3-24.55 7.13-29.35 11.95-34.15 19.35-34.15L19.35-34.15Q24.75-34.15 28-32.3L28-32.3 28-27.25Q25.8-28.45 24.03-28.93 22.25-29.4 19.5-29.4L19.5-29.4Q14.45-29.4 11.08-25.98 7.7-22.55 7.7-16.9L7.7-16.9Q7.7-11.15 11.05-7.75 14.4-4.35 19.9-4.35L19.9-4.35Q24.75-4.35 28.05-6.85L28.05-6.85Z" opacity="1" transform="matrix(1,0,0,1,0,0)" fill="#ffffff" class="wordmark-text-0" data-fill-palette-color="primary" id="text-0"/></svg></g></svg></g></svg></g></svg></g></svg></g></svg></g><g><path xmlns="http://www.w3.org/2000/svg" d="M0 154.5v-154.5h154.5v154.5zM148.473 148.473v-142.446h-142.446v142.446z" fill="#ffffff" fill-rule="nonzero" stroke="none" stroke-width="1" stroke-linecap="butt" stroke-linejoin="miter" stroke-miterlimit="10" stroke-dasharray="" stroke-dashoffset="0" font-family="none" font-weight="none" font-size="none" text-anchor="none" style="mix-blend-mode: normal" data-fill-palette-color="tertiary"/></g></svg></g><defs/></svg>