<svg xmlns="http://www.w3.org/2000/svg" version="1.1" xmlns:xlink="http://www.w3.org/1999/xlink" xmlns:svgjs="http://svgjs.dev/svgjs" width="1000" height="296" viewBox="0 0 1000 296"><g transform="matrix(1,0,0,1,0.1066666666666265,0.12296240234377365)"><svg viewBox="0 0 375 111" data-background-color="#ffffff" preserveAspectRatio="xMidYMid meet" height="296" width="1000" xmlns="http://www.w3.org/2000/svg" xmlns:xlink="http://www.w3.org/1999/xlink"><g id="tight-bounds" transform="matrix(1,0,0,1,-0.03976036071776434,-0.045884338378925804)"><svg viewBox="0 0 375.07952880859375 111.09199523925781" height="111.09199523925781" width="375.07952880859375"><g><svg></svg></g><g><svg viewBox="0 0 375.07952880859375 111.09199523925781" height="111.09199523925781" width="375.07952880859375"><g transform="matrix(1,0,0,1,-10.220239639282227,-70.1572265625)"><path xmlns="http://www.w3.org/2000/svg" d="M10.22 177.043v-106.886h375.08v106.886l-33.435 0v-3.466h29.969v-99.954h-368.148v99.954l123.838 0 0 3.466z" fill="#000000" fill-rule="nonzero" stroke="none" stroke-width="1" stroke-linecap="butt" stroke-linejoin="miter" stroke-miterlimit="10" stroke-dasharray="" stroke-dashoffset="0" font-family="none" font-weight="none" font-size="none" text-anchor="none" style="mix-blend-mode: normal" data-fill-palette-color="tertiary"></path><g><path xmlns="http://www.w3.org/2000/svg" d="M152.794 177.939v0.761h-4.872v-8.996h4.791v0.761h-3.964v3.363h3.497v0.761h-3.497v3.35zM155.276 169.264v9.436h-0.814v-9.436zM162.203 177.539v0.827c-0.534 0.267-1.157 0.4-1.868 0.401v0c-1.005 0-1.822-0.314-2.451-0.943-0.626-0.626-0.94-1.451-0.94-2.474v0c0-1.086 0.276-1.94 0.828-2.563 0.552-0.623 1.268-0.934 2.149-0.934v0c0.828 0 1.486 0.271 1.975 0.814 0.489 0.543 0.734 1.308 0.734 2.296v0c0 0.303-0.018 0.543-0.053 0.721v0h-4.778c0.062 0.747 0.32 1.319 0.774 1.713 0.454 0.397 1.054 0.595 1.802 0.596v0c0.765 0 1.375-0.151 1.828-0.454zM159.894 172.614v0c-0.569 0-1.046 0.2-1.428 0.6-0.383 0.4-0.605 0.974-0.667 1.722v0h3.99v-0.307c0-0.614-0.172-1.103-0.515-1.468-0.342-0.365-0.802-0.547-1.38-0.547zM169.504 171.933l-2.402 6.767h-1.095l-2.336-6.767h0.855l0.947 2.843 1.081 3.27c0.089-0.329 0.458-1.419 1.108-3.27v0l0.988-2.843zM172.881 178.019v0c0.534 0 0.961-0.147 1.281-0.44 0.32-0.294 0.48-0.667 0.481-1.121v0-0.975h-1.322c-0.632 0-1.103 0.122-1.414 0.366-0.311 0.246-0.467 0.551-0.468 0.916v0c0 0.374 0.122 0.676 0.366 0.907 0.246 0.231 0.604 0.347 1.076 0.347zM174.643 178.7v-0.788c-0.374 0.569-1.023 0.854-1.949 0.855v0c-0.623 0-1.133-0.185-1.53-0.556-0.395-0.368-0.593-0.842-0.592-1.42v0c0-0.65 0.251-1.155 0.753-1.516 0.504-0.359 1.169-0.539 1.996-0.539v0h1.322v-0.307c0-0.605-0.129-1.062-0.387-1.369-0.258-0.306-0.69-0.459-1.295-0.46v0c-0.703 0-1.335 0.191-1.895 0.574v0-0.881c0.516-0.311 1.152-0.467 1.908-0.467v0c1.655 0 2.483 0.868 2.483 2.603v0 4.271zM180.649 177.686v0.827c-0.258 0.169-0.556 0.254-0.894 0.254v0c-1.281 0-1.922-0.658-1.922-1.976v0-4.164h-1.108v-0.694h1.108v-1.695h0.827v1.695h1.935v0.694h-1.935v4.204c0 0.774 0.36 1.161 1.081 1.162v0c0.356 0 0.658-0.102 0.908-0.307zM183.131 171.933v6.767h-0.814v-6.767zM183.126 169.362c0.11 0.112 0.166 0.248 0.166 0.409 0 0.16-0.055 0.294-0.166 0.4-0.112 0.107-0.248 0.16-0.408 0.16-0.16 0-0.294-0.053-0.401-0.16-0.107-0.107-0.16-0.24-0.16-0.4 0-0.16 0.053-0.296 0.16-0.409 0.107-0.11 0.24-0.166 0.401-0.165 0.16 0 0.296 0.055 0.408 0.165zM190.325 173.975v4.725h-0.814v-4.471c0-0.525-0.133-0.925-0.4-1.202-0.267-0.276-0.618-0.414-1.055-0.413v0c-0.552 0-1.028 0.211-1.428 0.632-0.4 0.424-0.601 0.996-0.6 1.717v0 3.737h-0.815v-6.767h0.815v1.161c0.418-0.845 1.135-1.268 2.149-1.268v0c0.65 0 1.17 0.2 1.561 0.601 0.392 0.4 0.587 0.916 0.587 1.548zM197.519 171.933v6.246c0 1.023-0.276 1.791-0.827 2.304-0.552 0.511-1.264 0.766-2.136 0.766v0c-0.774 0-1.433-0.129-1.975-0.387v0-0.801c0.552 0.276 1.188 0.414 1.909 0.414v0c0.676 0 1.215-0.184 1.615-0.552 0.4-0.37 0.601-0.951 0.6-1.744v0-0.88c-0.454 0.828-1.13 1.241-2.028 1.241v0c-0.783 0-1.448-0.289-1.995-0.868-0.548-0.578-0.822-1.361-0.822-2.349v0c0-1.014 0.252-1.851 0.756-2.509 0.502-0.658 1.162-0.988 1.98-0.988v0c0.97 0 1.673 0.432 2.109 1.295v0-1.188zM192.714 175.283v0c0 0.81 0.205 1.425 0.614 1.847 0.409 0.424 0.863 0.635 1.362 0.636v0c0.507 0 0.97-0.198 1.388-0.596 0.418-0.395 0.627-1.002 0.627-1.82v0c0-0.934-0.2-1.627-0.6-2.077-0.4-0.448-0.85-0.673-1.348-0.673v0c-0.632 0-1.13 0.249-1.495 0.748-0.365 0.498-0.547 1.143-0.548 1.935zM207.69 169.704v0.761h-2.496v8.235h-0.828v-8.235h-2.482v-0.761zM209.719 174.923v3.777h-0.815v-6.767h0.815v1.148c0.374-0.819 1.005-1.228 1.895-1.228v0c0.062 0 0.174 0.009 0.334 0.027v0 0.827c-0.178-0.053-0.356-0.08-0.534-0.08v0c-0.48 0-0.883 0.238-1.207 0.713-0.326 0.477-0.488 1.005-0.488 1.583zM218.127 171.933v6.767h-0.814v-1.215c-0.356 0.872-1.072 1.308-2.149 1.308v0c-0.658 0-1.181-0.198-1.567-0.595-0.388-0.395-0.582-0.917-0.582-1.567v0-4.698h0.814v4.471c0 0.516 0.135 0.912 0.406 1.188 0.272 0.276 0.631 0.414 1.076 0.414v0c0.596 0 1.079-0.214 1.449-0.641 0.368-0.427 0.553-0.983 0.553-1.668v0-3.764zM224.093 176.965v0c0 0.561-0.193 1.003-0.579 1.327-0.388 0.326-0.92 0.488-1.596 0.488v0c-0.819 0-1.477-0.133-1.976-0.4v0-0.841c0.596 0.338 1.237 0.507 1.922 0.507v0c0.454 0 0.799-0.093 1.036-0.28 0.235-0.187 0.352-0.432 0.352-0.734v0c0-0.356-0.123-0.632-0.368-0.828-0.244-0.196-0.646-0.405-1.206-0.627v0c-0.543-0.214-0.974-0.463-1.295-0.748-0.32-0.285-0.48-0.676-0.481-1.174v0c0-0.543 0.2-0.977 0.601-1.303 0.4-0.324 0.903-0.486 1.508-0.486v0c0.73 0 1.29 0.102 1.682 0.307v0 0.814c-0.418-0.24-0.983-0.36-1.695-0.36v0c-0.392 0-0.7 0.091-0.926 0.272-0.228 0.183-0.342 0.422-0.342 0.716v0c0 0.178 0.034 0.334 0.101 0.467 0.066 0.133 0.182 0.255 0.347 0.366 0.164 0.112 0.303 0.195 0.419 0.248 0.116 0.053 0.303 0.133 0.561 0.24v0c0.623 0.249 1.102 0.522 1.436 0.82 0.333 0.299 0.499 0.702 0.499 1.209zM228.818 177.686v0.827c-0.258 0.169-0.556 0.254-0.894 0.254v0c-1.281 0-1.922-0.658-1.922-1.976v0-4.164h-1.108v-0.694h1.108v-1.695h0.827v1.695h1.936v0.694h-1.936v4.204c0 0.774 0.36 1.161 1.082 1.162v0c0.356 0 0.658-0.102 0.907-0.307zM238.655 169.704v0.761h-2.496v8.235h-0.827v-8.235h-2.483v-0.761zM244.981 173.975v4.725h-0.814v-4.471c0-0.525-0.133-0.925-0.4-1.202-0.267-0.276-0.618-0.414-1.055-0.413v0c-0.552 0-1.028 0.211-1.428 0.632-0.4 0.424-0.601 0.996-0.6 1.717v0 3.737h-0.814v-9.436h0.814v3.83c0.409-0.845 1.126-1.268 2.149-1.268v0c0.65 0 1.17 0.2 1.561 0.601 0.392 0.4 0.587 0.916 0.587 1.548zM247.744 174.923v3.777h-0.814v-6.767h0.814v1.148c0.374-0.819 1.005-1.228 1.896-1.228v0c0.062 0 0.174 0.009 0.333 0.027v0 0.827c-0.178-0.053-0.356-0.08-0.534-0.08v0c-0.48 0-0.883 0.238-1.206 0.713-0.326 0.477-0.488 1.005-0.489 1.583zM256.994 175.35v0c0 1.005-0.282 1.835-0.846 2.488-0.566 0.655-1.343 0.982-2.331 0.982v0c-0.952 0-1.708-0.329-2.269-0.988-0.561-0.658-0.841-1.486-0.841-2.482v0c0-0.988 0.289-1.82 0.868-2.496 0.578-0.676 1.326-1.014 2.242-1.014v0c1.005 0 1.787 0.331 2.344 0.993 0.555 0.664 0.833 1.503 0.833 2.517zM251.561 175.35v0c0 0.739 0.206 1.372 0.62 1.9 0.415 0.53 0.96 0.795 1.636 0.796v0c0.739 0 1.311-0.261 1.717-0.782 0.404-0.52 0.606-1.158 0.606-1.914v0c0-0.783-0.191-1.435-0.574-1.957-0.383-0.52-0.965-0.779-1.749-0.779v0c-0.703 0-1.255 0.267-1.655 0.801-0.4 0.534-0.601 1.179-0.601 1.935zM263.641 171.933v6.767h-0.815v-1.215c-0.356 0.872-1.072 1.308-2.148 1.308v0c-0.658 0-1.181-0.198-1.567-0.595-0.388-0.395-0.582-0.917-0.582-1.567v0-4.698h0.814v4.471c0 0.516 0.136 0.912 0.408 1.188 0.271 0.276 0.628 0.414 1.073 0.414v0c0.596 0 1.079-0.214 1.45-0.641 0.368-0.427 0.553-0.983 0.552-1.668v0-3.764zM270.915 171.933v6.246c0 1.023-0.276 1.791-0.828 2.304-0.552 0.511-1.264 0.766-2.135 0.766v0c-0.774 0-1.433-0.129-1.976-0.387v0-0.801c0.552 0.276 1.188 0.414 1.909 0.414v0c0.676 0 1.215-0.184 1.615-0.552 0.4-0.37 0.601-0.951 0.6-1.744v0-0.88c-0.454 0.828-1.13 1.241-2.028 1.241v0c-0.783 0-1.448-0.289-1.994-0.868-0.548-0.578-0.822-1.361-0.822-2.349v0c0-1.014 0.252-1.851 0.755-2.509 0.502-0.658 1.162-0.988 1.981-0.988v0c0.97 0 1.673 0.432 2.108 1.295v0-1.188zM266.11 175.283v0c0 0.81 0.205 1.425 0.614 1.847 0.409 0.424 0.863 0.635 1.361 0.636v0c0.507 0 0.97-0.198 1.388-0.596 0.418-0.395 0.627-1.002 0.627-1.82v0c0-0.934-0.2-1.627-0.6-2.077-0.4-0.448-0.85-0.673-1.348-0.673v0c-0.632 0-1.13 0.249-1.495 0.748-0.365 0.498-0.547 1.143-0.547 1.935zM277.975 173.975v4.725h-0.814v-4.471c0-0.525-0.133-0.925-0.4-1.202-0.267-0.276-0.618-0.414-1.055-0.413v0c-0.552 0-1.028 0.211-1.428 0.632-0.4 0.424-0.601 0.996-0.601 1.717v0 3.737h-0.814v-9.436h0.814v3.83c0.409-0.845 1.126-1.268 2.149-1.268v0c0.65 0 1.17 0.2 1.562 0.601 0.392 0.4 0.587 0.916 0.587 1.548zM286.33 178.7v0h-3.123v-8.996h2.51c0.908 0 1.644 0.206 2.21 0.619 0.564 0.415 0.846 0.987 0.846 1.717v0c0 0.534-0.149 0.989-0.446 1.367-0.299 0.379-0.684 0.618-1.156 0.715v0c0.507 0.062 0.946 0.28 1.316 0.654 0.368 0.374 0.553 0.885 0.553 1.535v0c0 0.721-0.234 1.299-0.702 1.735-0.466 0.436-1.135 0.654-2.008 0.654zM285.81 170.438v0h-1.775v3.35h1.615c0.774 0 1.344-0.167 1.708-0.502 0.365-0.333 0.547-0.757 0.547-1.273v0c0-0.445-0.176-0.819-0.528-1.121-0.351-0.303-0.873-0.454-1.567-0.454zM286.077 174.522v0h-2.042v3.444h2.295c0.578 0 1.03-0.145 1.357-0.435 0.324-0.288 0.486-0.704 0.485-1.247v0c0-0.561-0.184-0.995-0.552-1.303-0.37-0.306-0.884-0.459-1.543-0.459zM291.522 169.264v9.436h-0.814v-9.436zM299.477 175.35v0c0 1.005-0.283 1.835-0.849 2.488-0.564 0.655-1.34 0.982-2.327 0.982v0c-0.952 0-1.708-0.329-2.269-0.988-0.561-0.658-0.841-1.486-0.841-2.482v0c0-0.988 0.289-1.82 0.867-2.496 0.578-0.676 1.326-1.014 2.243-1.014v0c1.005 0 1.786 0.331 2.341 0.993 0.557 0.664 0.836 1.503 0.835 2.517zM294.045 175.35v0c0 0.739 0.206 1.372 0.619 1.9 0.415 0.53 0.96 0.795 1.637 0.796v0c0.739 0 1.31-0.261 1.713-0.782 0.406-0.52 0.609-1.158 0.609-1.914v0c0-0.783-0.191-1.435-0.574-1.957-0.383-0.52-0.965-0.779-1.748-0.779v0c-0.703 0-1.255 0.267-1.655 0.801-0.4 0.534-0.601 1.179-0.601 1.935zM305.644 177.646v0.827c-0.383 0.258-0.876 0.387-1.482 0.387v0c-1.094 0-1.949-0.345-2.563-1.036-0.614-0.689-0.921-1.518-0.92-2.487v0c0-0.943 0.313-1.766 0.939-2.47 0.628-0.703 1.476-1.054 2.544-1.054v0c0.552 0 1.046 0.12 1.482 0.36v0 0.828c-0.4-0.267-0.868-0.4-1.402-0.401v0c-0.828 0-1.486 0.269-1.975 0.807-0.489 0.539-0.734 1.187-0.734 1.943v0c0 0.765 0.236 1.41 0.707 1.935 0.472 0.525 1.143 0.787 2.016 0.788v0c0.543 0 1.005-0.142 1.388-0.427zM308.206 169.264v9.436h-0.814v-9.436zM312.157 171.933l-2.763 3.217 2.856 3.55h-1.014l-2.83-3.55 2.75-3.217zM318.11 177.646v0.827c-0.383 0.258-0.876 0.387-1.482 0.387v0c-1.094 0-1.949-0.345-2.562-1.036-0.614-0.689-0.921-1.518-0.921-2.487v0c0-0.943 0.313-1.766 0.939-2.47 0.628-0.703 1.476-1.054 2.544-1.054v0c0.552 0 1.046 0.12 1.482 0.36v0 0.828c-0.4-0.267-0.868-0.4-1.402-0.401v0c-0.828 0-1.486 0.269-1.975 0.807-0.489 0.539-0.734 1.187-0.734 1.943v0c0 0.765 0.236 1.41 0.707 1.935 0.472 0.525 1.143 0.787 2.016 0.788v0c0.543 0 1.005-0.142 1.388-0.427zM324.97 173.975v4.725h-0.814v-4.471c0-0.525-0.133-0.925-0.4-1.202-0.267-0.276-0.618-0.414-1.055-0.413v0c-0.552 0-1.028 0.211-1.428 0.632-0.4 0.424-0.601 0.996-0.601 1.717v0 3.737h-0.814v-9.436h0.814v3.83c0.409-0.845 1.126-1.268 2.149-1.268v0c0.65 0 1.17 0.2 1.562 0.601 0.392 0.4 0.587 0.916 0.587 1.548zM328.881 178.019v0c0.534 0 0.961-0.147 1.281-0.44 0.32-0.294 0.48-0.667 0.481-1.121v0-0.975h-1.322c-0.632 0-1.103 0.122-1.415 0.366-0.311 0.246-0.467 0.551-0.467 0.916v0c0 0.374 0.123 0.676 0.369 0.907 0.244 0.231 0.602 0.347 1.073 0.347zM330.643 178.7v-0.788c-0.374 0.569-1.023 0.854-1.949 0.855v0c-0.623 0-1.132-0.185-1.527-0.556-0.397-0.368-0.595-0.842-0.595-1.42v0c0-0.65 0.252-1.155 0.755-1.516 0.502-0.359 1.167-0.539 1.994-0.539v0h1.322v-0.307c0-0.605-0.129-1.062-0.387-1.369-0.258-0.306-0.69-0.459-1.295-0.46v0c-0.703 0-1.335 0.191-1.895 0.574v0-0.881c0.516-0.311 1.152-0.467 1.908-0.467v0c1.655 0 2.483 0.868 2.483 2.603v0 4.271zM334.273 171.933v6.767h-0.814v-6.767zM334.265 169.362c0.112 0.112 0.168 0.248 0.168 0.409 0 0.16-0.056 0.294-0.168 0.4-0.11 0.107-0.246 0.16-0.406 0.16-0.16 0-0.294-0.053-0.4-0.16-0.107-0.107-0.16-0.24-0.16-0.4 0-0.16 0.053-0.296 0.16-0.409 0.107-0.11 0.24-0.166 0.4-0.165 0.16 0 0.295 0.055 0.406 0.165zM341.467 173.975v4.725h-0.814v-4.471c0-0.525-0.133-0.925-0.401-1.202-0.267-0.276-0.618-0.414-1.054-0.413v0c-0.552 0-1.028 0.211-1.428 0.632-0.4 0.424-0.601 0.996-0.601 1.717v0 3.737h-0.814v-6.767h0.814v1.161c0.418-0.845 1.135-1.268 2.149-1.268v0c0.65 0 1.17 0.2 1.562 0.601 0.392 0.4 0.587 0.916 0.587 1.548z" fill="#89939e" fill-rule="nonzero" stroke="none" stroke-width="1" stroke-linecap="butt" stroke-linejoin="miter" stroke-miterlimit="10" stroke-dasharray="" stroke-dashoffset="0" font-family="none" font-weight="none" font-size="none" text-anchor="none" style="mix-blend-mode: normal" data-fill-palette-color="secondary"></path></g></g><g transform="matrix(1,0,0,1,29.331764404296905,36.32958604280809)"><svg viewBox="0 0 316.41599999999994 38.43282315364164" height="38.43282315364164" width="316.41599999999994"><g><svg viewBox="0 0 316.41599999999994 38.43282315364164" height="38.43282315364164" width="316.41599999999994"><g><svg viewBox="0 0 316.41599999999994 38.43282315364164" height="38.43282315364164" width="316.41599999999994"><g><svg viewBox="0 0 316.41599999999994 38.43282315364164" height="38.43282315364164" width="316.41599999999994"><g id="textblocktransform"><svg viewBox="0 0 316.41599999999994 38.43282315364164" height="38.43282315364164" width="316.41599999999994" id="textblock"><g><svg viewBox="0 0 316.41599999999994 38.43282315364164" height="38.43282315364164" width="316.41599999999994"><g transform="matrix(1,0,0,1,0,0)"><svg width="316.41599999999994" viewBox="2.299999952316284 -34.150001525878906 286.3406250476837 34.60000228881836" height="38.43282315364164" data-palette-color="#000000"><g transform="matrix(1,0,0,1,0,0)"><g><svg width="4.864693680297692" viewBox="2.5199999809265137 -36.86000061035156 32.72999954223633 37.36000061035156" height="5.553616659439145" data-palette-color="#000000" id="scriptelement" x="280.7811671682005" y="-31.499699660438566"><path d="M35.25-23.63L35.25-23.63 27.47-23.63Q27.25-25.14 26.6-26.32 25.94-27.5 24.91-28.34 23.88-29.17 22.54-29.62 21.2-30.06 19.64-30.06L19.64-30.06Q16.81-30.06 14.72-28.67 12.62-27.27 11.47-24.62 10.32-21.96 10.32-18.18L10.32-18.18Q10.32-14.29 11.48-11.65 12.64-9 14.74-7.65 16.83-6.3 19.58-6.3L19.58-6.3Q21.13-6.3 22.45-6.71 23.77-7.12 24.8-7.91 25.83-8.7 26.52-9.84 27.2-10.97 27.47-12.43L27.47-12.43 35.25-12.39Q34.94-9.89 33.74-7.57 32.55-5.26 30.53-3.44 28.52-1.62 25.74-0.56 22.96 0.5 19.46 0.5L19.46 0.5Q14.6 0.5 10.77-1.7 6.94-3.91 4.73-8.08 2.52-12.25 2.52-18.18L2.52-18.18Q2.52-24.13 4.76-28.3 7-32.48 10.83-34.67 14.67-36.86 19.46-36.86L19.46-36.86Q22.62-36.86 25.33-35.97 28.04-35.09 30.13-33.39 32.23-31.69 33.55-29.24 34.87-26.79 35.25-23.63Z" opacity="1" transform="matrix(1,0,0,1,0,0)" fill="#000000" class="undefined-123" data-fill-palette-color="primary" id="p-123"></path></svg></g></g><path d="M277.786-28.723C277.786-31.72 280.216-34.15 283.214-34.15 286.211-34.15 288.641-31.72 288.641-28.723 288.641-25.726 286.211-23.296 283.214-23.296 280.216-23.296 277.786-25.726 277.786-28.723ZM283.214-23.849C285.906-23.849 288.088-26.031 288.088-28.723 288.088-31.415 285.906-33.597 283.214-33.597 280.522-33.597 278.339-31.415 278.339-28.723 278.339-26.031 280.522-23.849 283.214-23.849Z" fill="#000000" id="scriptcircle" data-fill-palette-color="primary"></path><path d="M28.05-6.85L28.05-1.65Q24.95 0.4 19.45 0.4L19.45 0.4Q11.9 0.4 7.1-4.3 2.3-9 2.3-16.9L2.3-16.9Q2.3-24.55 7.13-29.35 11.95-34.15 19.35-34.15L19.35-34.15Q24.75-34.15 28-32.3L28-32.3 28-27.25Q25.8-28.45 24.03-28.93 22.25-29.4 19.5-29.4L19.5-29.4Q14.45-29.4 11.08-25.98 7.7-22.55 7.7-16.9L7.7-16.9Q7.7-11.15 11.05-7.75 14.4-4.35 19.9-4.35L19.9-4.35Q24.75-4.35 28.05-6.85L28.05-6.85ZM53.35-4.3L53.35 0 33.9 0 33.9-33.7 53.1-33.7 53.1-29.4 39.05-29.4 39.05-19 51.5-19 51.5-14.7 39.05-14.7 39.05-4.3 53.35-4.3ZM69.15-29.4L69.15-29.4 64.75-29.4 64.75-17.1 69.4-17.1Q72.6-17.1 74.25-18.78 75.9-20.45 75.9-23.25L75.9-23.25Q75.9-29.4 69.15-29.4ZM64.75-12.8L64.75 0 59.6 0 59.6-33.7 69-33.7Q74.8-33.7 77.95-30.88 81.1-28.05 81.1-23.2L81.1-23.2Q81.05-19.65 79.3-17.18 77.55-14.7 74.45-13.6L74.45-13.6 83.25 0 77.1 0 69.2-12.8 64.75-12.8ZM108.24-33.7L108.24-29.4 99.39-29.4 99.39 0 94.24 0 94.24-29.4 85.44-29.4 85.44-33.7 108.24-33.7ZM132.94-9.2L132.94-9.2Q132.94-4.75 129.79-2.2 126.64 0.35 121.64 0.35L121.64 0.35Q116.09 0.35 112.44-1.8L112.44-1.8 112.44-7.15Q116.39-4.2 121.59-4.2L121.59-4.2Q124.34-4.2 125.94-5.48 127.54-6.75 127.54-9L127.54-9Q127.54-10.35 126.59-11.48 125.64-12.6 124.54-13.18 123.44-13.75 121.24-14.75L121.24-14.75Q119.94-15.35 119.42-15.6 118.89-15.85 117.69-16.5 116.49-17.15 115.92-17.6 115.34-18.05 114.49-18.85 113.64-19.65 113.27-20.45 112.89-21.25 112.57-22.33 112.24-23.4 112.24-24.65L112.24-24.65Q112.24-28.95 115.37-31.45 118.49-33.95 123.44-33.95L123.44-33.95Q127.99-33.95 131.19-32.35L131.19-32.35 131.19-27.25Q127.84-29.35 123.59-29.35L123.59-29.35Q120.84-29.35 119.27-28.13 117.69-26.9 117.69-24.9 117.69-22.9 119.24-21.7 120.79-20.5 123.99-19.1L123.99-19.1Q126.09-18.2 127.27-17.55 128.44-16.9 129.97-15.73 131.49-14.55 132.22-12.93 132.94-11.3 132.94-9.2ZM158.49-4.3L158.49 0 139.04 0 139.04-33.7 158.24-33.7 158.24-29.4 144.19-29.4 144.19-19 156.64-19 156.64-14.7 144.19-14.7 144.19-4.3 158.49-4.3ZM189.14-6.85L189.14-1.65Q186.04 0.4 180.54 0.4L180.54 0.4Q172.99 0.4 168.19-4.3 163.39-9 163.39-16.9L163.39-16.9Q163.39-24.55 168.21-29.35 173.04-34.15 180.44-34.15L180.44-34.15Q185.84-34.15 189.09-32.3L189.09-32.3 189.09-27.25Q186.89-28.45 185.11-28.93 183.34-29.4 180.59-29.4L180.59-29.4Q175.54-29.4 172.16-25.98 168.79-22.55 168.79-16.9L168.79-16.9Q168.79-11.15 172.14-7.75 175.49-4.35 180.99-4.35L180.99-4.35Q185.84-4.35 189.14-6.85L189.14-6.85ZM220.38-33.7L220.38-12.9Q220.38-6.35 216.98-2.95 213.58 0.45 207.58 0.45L207.58 0.45Q201.68 0.45 198.28-2.88 194.88-6.2 194.88-12.5L194.88-12.5 194.88-33.7 200.03-33.7 200.03-12.55Q200.03-8.25 202.11-6.28 204.18-4.3 207.58-4.3L207.58-4.3Q215.23-4.3 215.23-12.8L215.23-12.8 215.23-33.7 220.38-33.7ZM237.13-29.4L237.13-29.4 232.73-29.4 232.73-17.1 237.38-17.1Q240.58-17.1 242.23-18.78 243.88-20.45 243.88-23.25L243.88-23.25Q243.88-29.4 237.13-29.4ZM232.73-12.8L232.73 0 227.58 0 227.58-33.7 236.98-33.7Q242.78-33.7 245.93-30.88 249.08-28.05 249.08-23.2L249.08-23.2Q249.03-19.65 247.28-17.18 245.53-14.7 242.43-13.6L242.43-13.6 251.23 0 245.08 0 237.18-12.8 232.73-12.8ZM275.43-4.3L275.43 0 255.98 0 255.98-33.7 275.18-33.7 275.18-29.4 261.13-29.4 261.13-19 273.58-19 273.58-14.7 261.13-14.7 261.13-4.3 275.43-4.3Z" opacity="1" transform="matrix(1,0,0,1,0,0)" fill="#000000" class="wordmark-text-0" data-fill-palette-color="primary" id="text-0"></path></svg></g></svg></g></svg></g></svg></g></svg></g></svg></g></svg></g></svg></g><defs></defs></svg><rect width="375.07952880859375" height="111.09199523925781" fill="none" stroke="none" visibility="hidden"></rect></g></svg></g></svg>